<svg id="Gradient" height="512" viewBox="0 0 512 512" width="512" xmlns="http://www.w3.org/2000/svg" xmlns:xlink="http://www.w3.org/1999/xlink"><linearGradient id="linear-gradient" gradientUnits="userSpaceOnUse" x1="256" x2="256" y1="496" y2="16"><stop offset="0" stop-color="#12c2e9"/><stop offset=".5" stop-color="#c471ed"/><stop offset="1" stop-color="#f64f59"/></linearGradient><path d="m345.365 285.459c23.057-27.083 54.635-64.174 54.635-125.459 0-79.4-64.6-144-144-144s-144 64.6-144 144c0 55.384 29.552 92.076 53.3 121.56 14.326 17.79 26.7 33.153 26.7 46.44v24h-16a8 8 0 0 0 -8 8v64a8 8 0 0 0 8 8h16v40a24.028 24.028 0 0 0 24 24h80a24.028 24.028 0 0 0 24-24v-40h16a8 8 0 0 0 8-8v-64a8 8 0 0 0 -8-8h-16v-24c0-12.747 11.193-25.895 25.365-42.541zm-41.365 186.541a8.009 8.009 0 0 1 -8 8h-80a8.009 8.009 0 0 1 -8-8v-40h96zm-120-56v-16h144v16zm144-32h-144v-16h144zm-64-32v-100.3a32 32 0 1 0 -8-48.827 32 32 0 1 0 -8 48.827v100.3h-40v-24c0-18.929-14.014-36.329-30.241-56.477-22.169-27.523-49.759-61.782-49.759-111.523a128 128 0 0 1 256 0c0 55.4-28.177 88.493-50.818 115.087-15.659 18.393-29.182 34.277-29.182 52.913v24zm0-128a16 16 0 1 1 16 16 16.019 16.019 0 0 1 -16-16zm-16 0a16 16 0 1 1 -16-16 16.019 16.019 0 0 1 16 16zm200-184v8h8a8 8 0 0 1 0 16h-8v8a8 8 0 0 1 -16 0v-8h-8a8 8 0 0 1 0-16h8v-8a8 8 0 0 1 16 0zm0 296a8 8 0 0 1 -8 8h-8v8a8 8 0 0 1 -16 0v-8h-8a8 8 0 0 1 0-16h8v-8a8 8 0 0 1 16 0v8h8a8 8 0 0 1 8 8zm24-176a24 24 0 1 0 24 24 24.027 24.027 0 0 0 -24-24zm0 32a8 8 0 1 1 8-8 8.009 8.009 0 0 1 -8 8zm-392-152v8h8a8 8 0 0 1 0 16h-8v8a8 8 0 0 1 -16 0v-8h-8a8 8 0 0 1 0-16h8v-8a8 8 0 0 1 16 0zm32 296a8 8 0 0 1 -8 8h-8v8a8 8 0 0 1 -16 0v-8h-8a8 8 0 0 1 0-16h8v-8a8 8 0 0 1 16 0v8h8a8 8 0 0 1 8 8zm-72-176a24 24 0 1 0 24 24 24.027 24.027 0 0 0 -24-24zm0 32a8 8 0 1 1 8-8 8.009 8.009 0 0 1 -8 8z" fill="url(#linear-gradient)"/></svg>