<svg height="512" viewBox="0 0 64 64" width="512" xmlns="http://www.w3.org/2000/svg" xmlns:xlink="http://www.w3.org/1999/xlink"><linearGradient id="New_Gradient_Swatch_5" gradientUnits="userSpaceOnUse" x1="1" x2="64.198" y1="54.246" y2="54.246"><stop offset="0" stop-color="#4761ac"/><stop offset="1" stop-color="#54c2ef"/></linearGradient><linearGradient id="New_Gradient_Swatch_5-2" x2="64.198" xlink:href="#New_Gradient_Swatch_5" y1="28" y2="28"/><linearGradient id="New_Gradient_Swatch_5-3" x2="64.198" xlink:href="#New_Gradient_Swatch_5" y1="17.5" y2="17.5"/><linearGradient id="New_Gradient_Swatch_5-4" x2="64.198" xlink:href="#New_Gradient_Swatch_5" y1="25" y2="25"/><linearGradient id="New_Gradient_Swatch_5-5" x2="64.198" xlink:href="#New_Gradient_Swatch_5" y1="4.5" y2="4.5"/><linearGradient id="New_Gradient_Swatch_5-6" gradientTransform="matrix(.707 .707 -.707 .707 11.222 -11.092)" x2="64.198" xlink:href="#New_Gradient_Swatch_5" y1="8" y2="8"/><linearGradient id="New_Gradient_Swatch_5-7" x2="64.198" xlink:href="#New_Gradient_Swatch_5" y1="21" y2="21"/><linearGradient id="New_Gradient_Swatch_5-8" gradientTransform="matrix(.707 .707 -.707 .707 18.837 -29.477)" x2="64.198" xlink:href="#New_Gradient_Swatch_5" y1="8" y2="8"/><g id="Gradient_outline" data-name="Gradient outline"><path d="m8 60h4v1a1 1 0 0 0 1 1h4a1 1 0 0 0 1-1v-.9l18.9 1.9a.848.848 0 0 0 .1 0 1 1 0 0 0 .447-.1l17.824-8.912a3.46 3.46 0 0 0 1.655-4.354 3.27 3.27 0 0 0 -1.869-1.934 4.245 4.245 0 0 0 -3.451.378l-9.911 3.6a3 3 0 0 0 -2.695-1.678h-21v-1a1 1 0 0 0 -1-1h-4a1 1 0 0 0 -1 1v1h-4a1 1 0 0 0 -1 1v9a1 1 0 0 0 1 1zm10-9h21a1 1 0 0 1 0 2h-10v2h10a3 3 0 0 0 2.9-2.262l10.445-3.8a.975.975 0 0 0 .105-.045 2.517 2.517 0 0 1 1.9-.324 1.312 1.312 0 0 1 .723.8 1.447 1.447 0 0 1 -.693 1.822l-17.568 8.785-18.812-1.876zm-4-2h2v11h-2zm-5 2h3v7h-3z" fill="url(#New_Gradient_Swatch_5)"/><path d="m25 32.563v9.437a1 1 0 0 0 1 1h1v3a1 1 0 0 0 1 1h8a1 1 0 0 0 1-1v-3h1a1 1 0 0 0 1-1v-9.437a12.325 12.325 0 0 0 6-10.563 13 13 0 0 0 -26 0 12.325 12.325 0 0 0 6 10.563zm10 12.437h-6v-2h6zm2-4h-10v-2h10zm0-4h-10v-2h10zm-6-4v-6h2v6zm1-22a11.013 11.013 0 0 1 11 11 10.316 10.316 0 0 1 -5.5 9.135 1 1 0 0 0 -.5.865v1h-2v-6h2v-2h-10v2h2v6h-2v-1a1 1 0 0 0 -.5-.865 10.316 10.316 0 0 1 -5.5-9.135 11.013 11.013 0 0 1 11-11z" fill="url(#New_Gradient_Swatch_5-2)"/><path d="m32 15v-2c-3.113 0-9 1.881-9 9h2c0-6.883 6.717-7 7-7z" fill="url(#New_Gradient_Swatch_5-3)"/><path d="m23 24h2v2h-2z" fill="url(#New_Gradient_Swatch_5-4)"/><path d="m31 2h2v5h-2z" fill="url(#New_Gradient_Swatch_5-5)"/><path d="m18 5.172h2v5.657h-2z" fill="url(#New_Gradient_Swatch_5-6)" transform="matrix(.707 -.707 .707 .707 -.092 15.778)"/><path d="m12 20h5v2h-5z" fill="url(#New_Gradient_Swatch_5-7)"/><path d="m42.172 7h5.657v2h-5.657z" fill="url(#New_Gradient_Swatch_5-8)" transform="matrix(.707 -.707 .707 .707 7.523 34.163)"/><path d="m47 20h5v2h-5z" fill="url(#New_Gradient_Swatch_5-7)"/></g></svg>