<svg height="512" viewBox="0 0 128 128" width="512" xmlns="http://www.w3.org/2000/svg" xmlns:xlink="http://www.w3.org/1999/xlink"><linearGradient id="a" gradientUnits="userSpaceOnUse" x1="84.361" x2="37.694" y1="93.707" y2="47.04"><stop offset="0" stop-color="#fd5b6e"/><stop offset="1" stop-color="#8a87e0"/></linearGradient><path d="m123.65 33.41-.821-.821a22.945 22.945 0 0 0 -17.216-6.789 23.4 23.4 0 0 0 -6.787-17.215l-.616-.616a15.284 15.284 0 0 0 -10.685-4.556h-.052a14.79 14.79 0 0 0 -14.812 14.472l-.8 31.392-33.548 33.549-12.12-12.121a1.748 1.748 0 0 0 -2.474 0l-6.241 6.24a1.751 1.751 0 0 0 0 2.475l5.88 5.881-8.251 8.25-5.88-5.88a1.748 1.748 0 0 0 -2.474 0l-6.24 6.24a1.749 1.749 0 0 0 0 2.475l12.12 12.12-5.293 5.294a1.748 1.748 0 0 0 0 2.474l7.8 7.8a1.748 1.748 0 0 0 2.474 0l20.917-20.917a1.749 1.749 0 1 0 -2.474-2.474l-19.68 19.679-5.326-5.326 8.32-8.32 20.18-20.178 35.28-35.28a1.75 1.75 0 0 0 .512-1.193l.816-32.09a11.309 11.309 0 0 1 11.327-11.062h.039a11.765 11.765 0 0 1 8.21 3.53l.617.617a19.857 19.857 0 0 1 5.621 16.425 1.751 1.751 0 0 0 1.956 1.956 19.611 19.611 0 0 1 16.425 5.623l.822.821a11.349 11.349 0 0 1 -7.737 19.37l-32.09.816a1.75 1.75 0 0 0 -1.193.512l-21.429 21.43a1.75 1.75 0 0 0 2.473 2.474l20.937-20.935 31.392-.8a14.849 14.849 0 0 0 10.121-25.342zm-108.543 72.621-10.882-10.883 3.765-3.765 5.88 5.88a1.751 1.751 0 0 0 2.475 0l10.725-10.725a1.748 1.748 0 0 0 0-2.474l-5.88-5.881 3.766-3.766 10.883 10.883-17.054 17.054zm36.675-18.6a1.748 1.748 0 0 1 0 2.474l-3.83 3.83a1.75 1.75 0 0 1 -2.475-2.474l3.831-3.83a1.748 1.748 0 0 1 2.474.002zm33.199-69.231-.736 28.97 28.97-.737a2.524 2.524 0 0 0 1.721-4.308l-.822-.823a10.826 10.826 0 0 0 -9.076-3.106l-11.292 1.432a1.751 1.751 0 0 1 -1.956-1.956l1.428-11.293a10.749 10.749 0 0 0 -1.545-7.117 1.75 1.75 0 0 1 2.969-1.854 14.4 14.4 0 0 1 2.048 9.41l-1.144 9.054 9.053-1.147a14.3 14.3 0 0 1 11.991 4.1l.822.823a6.024 6.024 0 0 1 -4.107 10.28l-30.811.784h-.045a1.751 1.751 0 0 1 -1.749-1.8l.783-30.811a1.75 1.75 0 1 1 3.5.09z" fill="url(#a)"/></svg>