<?xml version="1.0" encoding="utf-8"?>
<!-- Generator: Adobe Illustrator 19.0.0, SVG Export Plug-In . SVG Version: 6.00 Build 0)  -->
<svg xmlns="http://www.w3.org/2000/svg" xmlns:xlink="http://www.w3.org/1999/xlink" version="1.1" id="Layer_1" x="0px" y="0px" viewBox="0 2 98 98" style="enable-background:new 0 2 98 98;" xml:space="preserve" width="512" height="512">
<style type="text/css">
	.st0{fill:url(#SVGID_1_);}
</style>
<linearGradient id="SVGID_1_" gradientUnits="userSpaceOnUse" x1="49" y1="10.2335" x2="49" y2="91.7665">
	<stop offset="0" style="stop-color:#00EFD1"/>
	<stop offset="1" style="stop-color:#00ACEA"/>
</linearGradient>
<path class="st0" d="M83.3,75.4L72.5,64.6c0,0,0,0,0,0s0,0,0,0l-22-22c2.6-3.5,4-7.7,4-12.1c0-5.4-2.1-10.5-6-14.4  c-8-8-20.9-8-28.8-0.1c-7.9,7.9-7.9,20.8,0.1,28.8c3.9,3.9,9,6,14.4,6c0,0,0,0,0.1,0c4.4,0,8.6-1.4,12-4l19.8,19.8l-8.4,8.4  c-1.2,1.2-1.2,3.1,0,4.2c0.6,0.6,1.4,0.9,2.1,0.9s1.5-0.3,2.1-0.9l8.4-8.4l6.5,6.5l-9.2,9.1c-1.2,1.2-1.2,3.1,0,4.2  c0.6,0.6,1.4,0.9,2.1,0.9c0.8,0,1.5-0.3,2.1-0.9l11.3-11.2c0.6-0.6,0.9-1.3,0.9-2.1S83.9,76,83.3,75.4z M34.3,44.9  C34.2,44.9,34.2,44.9,34.3,44.9c-3.9,0-7.5-1.5-10.2-4.2C18.4,35.1,18.4,26,24,20.4c2.8-2.8,6.4-4.2,10.1-4.2  c3.7,0,7.4,1.4,10.2,4.2c2.7,2.7,4.2,6.3,4.2,10.2c0,3.8-1.5,7.4-4.2,10.1C41.7,43.4,38.1,44.9,34.3,44.9z"/>
</svg>
