<svg height="512" viewBox="0 0 64 64" width="512" xmlns="http://www.w3.org/2000/svg" xmlns:xlink="http://www.w3.org/1999/xlink"><linearGradient id="gradient_ice" gradientUnits="userSpaceOnUse" x1="4.217" x2="60.165" y1="56.215" y2="1.913"><stop offset="0" stop-color="#fff200"/><stop offset="1" stop-color="#cd118c"/></linearGradient><linearGradient id="gradient_ice-2" x1="2.094" x2="58.041" xlink:href="#gradient_ice" y1="54.027" y2="-.275"/><linearGradient id="gradient_ice-3" x1="-12.003" x2="43.945" xlink:href="#gradient_ice" y1="39.503" y2="-14.799"/><linearGradient id="gradient_ice-4" gradientTransform="matrix(.966 .259 -.259 .966 7.965 -.51)" x1="-8.064" x2="47.883" xlink:href="#gradient_ice" y1="43.561" y2="-10.741"/><linearGradient id="gradient_ice-5" gradientTransform="matrix(.259 .966 -.966 .259 72.017 -33.874)" x1="17.237" x2="73.185" xlink:href="#gradient_ice" y1="69.629" y2="15.327"/><linearGradient id="gradient_ice-6" x1="14.191" x2="70.139" xlink:href="#gradient_ice" y1="66.491" y2="12.188"/><linearGradient id="gradient_ice-7" gradientTransform="matrix(.966 .259 -.259 .966 6.123 -14.487)" x1="10.252" x2="66.2" xlink:href="#gradient_ice" y1="62.433" y2="8.13"/><linearGradient id="gradient_ice-8" gradientTransform="matrix(.259 .966 -.966 .259 19.854 6.149)" x1="-15.049" x2="40.898" xlink:href="#gradient_ice" y1="36.364" y2="-17.938"/><linearGradient id="gradient_ice-9" x1="3.887" x2="59.835" xlink:href="#gradient_ice" y1="55.874" y2="1.572"/><linearGradient id="gradient_ice-10" x1="5.886" x2="61.834" xlink:href="#gradient_ice" y1="57.934" y2="3.632"/><linearGradient id="gradient_ice-11" x1="3.916" x2="59.864" xlink:href="#gradient_ice" y1="55.905" y2="1.603"/><linearGradient id="gradient_ice-12" x1="5.857" x2="61.804" xlink:href="#gradient_ice" y1="57.904" y2="3.602"/><linearGradient id="gradient_ice-13" x1="23.29" x2="79.238" xlink:href="#gradient_ice" y1="75.866" y2="21.563"/><linearGradient id="gradient_ice-14" x1="25.289" x2="81.237" xlink:href="#gradient_ice" y1="77.925" y2="23.623"/><linearGradient id="gradient_ice-15" x1="23.319" x2="79.267" xlink:href="#gradient_ice" y1="75.896" y2="21.594"/><linearGradient id="gradient_ice-16" x1="25.26" x2="81.207" xlink:href="#gradient_ice" y1="77.895" y2="23.593"/><g id="jigsaw-lamp-idea-education"><path d="m54 24a22 22 0 1 0 -30 20.47v1.53h-2v2h2v4h-2v2h2a8 8 0 0 0 16 0h2v-2h-2v-4h2v-2h-2v-1.53a22.028 22.028 0 0 0 14-20.47zm-22 36a6 6 0 0 1 -6-6h12a6 6 0 0 1 -6 6zm6-8h-12v-4h12zm.67-9.16a1 1 0 0 0 -.67.94v2.22h-12v-2.22a1 1 0 0 0 -.67-.94 20 20 0 1 1 13.34 0z" fill="url(#gradient_ice)"/><path d="m44 19a3.708 3.708 0 0 0 -1 .13v-4.13a1 1 0 0 0 -1-1h-6.13a3.708 3.708 0 0 0 .13-1 4 4 0 0 0 -8 0 3.708 3.708 0 0 0 .13 1h-6.13a1 1 0 0 0 -1 1v5.77a1 1 0 0 0 1.67.74 2 2 0 1 1 0 2.98 1 1 0 0 0 -1.67.74v9.77a1 1 0 0 0 1 1h7.77a1 1 0 0 0 .74-1.67 2 2 0 1 1 2.98 0 1 1 0 0 0 .74 1.67h7.77a1 1 0 0 0 1-1v-8.13a3.708 3.708 0 0 0 1 .13 4 4 0 0 0 0-8zm0 6a1.953 1.953 0 0 1 -1.33-.52 1 1 0 0 0 -1.67.74v8.78h-5.13a3.708 3.708 0 0 0 .13-1 4 4 0 0 0 -8 0 3.708 3.708 0 0 0 .13 1h-5.13v-7.13a3.708 3.708 0 0 0 1 .13 4 4 0 0 0 0-8 3.708 3.708 0 0 0 -1 .13v-3.13h6.78a1 1 0 0 0 .74-1.67 1.953 1.953 0 0 1 -.52-1.33 2 2 0 0 1 4 0 1.953 1.953 0 0 1 -.52 1.33 1 1 0 0 0 .74 1.67h6.78v4.78a1 1 0 0 0 1.67.74 1.953 1.953 0 0 1 1.33-.52 2 2 0 0 1 0 4z" fill="url(#gradient_ice-2)"/><path d="m2 22h6v2h-6z" fill="url(#gradient_ice-3)"/><path d="m2.92 28.988h6v2h-6z" fill="url(#gradient_ice-4)" transform="matrix(.966 -.259 .259 .966 -7.561 2.555)"/><path d="m57.08 26.988h2v6h-2z" fill="url(#gradient_ice-5)" transform="matrix(.259 -.966 .966 .259 14.084 78.329)"/><path d="m56 22h6v2h-6z" fill="url(#gradient_ice-6)"/><path d="m55.08 15.012h6v2h-6z" fill="url(#gradient_ice-7)" transform="matrix(.966 -.259 .259 .966 -2.165 15.578)"/><path d="m4.92 13.012h2v6h-2z" fill="url(#gradient_ice-8)" transform="matrix(.259 -.966 .966 .259 -11.079 17.585)"/><path d="m11 47h2v2h-2z" fill="url(#gradient_ice-9)"/><path d="m11 51h2v2h-2z" fill="url(#gradient_ice-10)"/><path d="m9 49h2v2h-2z" fill="url(#gradient_ice-11)"/><path d="m13 49h2v2h-2z" fill="url(#gradient_ice-12)"/><path d="m51 47h2v2h-2z" fill="url(#gradient_ice-13)"/><path d="m51 51h2v2h-2z" fill="url(#gradient_ice-14)"/><path d="m49 49h2v2h-2z" fill="url(#gradient_ice-15)"/><path d="m53 49h2v2h-2z" fill="url(#gradient_ice-16)"/></g></svg>