<svg height="491pt" viewBox="-7 0 491 491.02079" width="491pt" xmlns="http://www.w3.org/2000/svg" xmlns:xlink="http://www.w3.org/1999/xlink"><linearGradient id="a"><stop offset="0" stop-color="#00efd1"/><stop offset="1" stop-color="#00acea"/></linearGradient><linearGradient id="b" gradientUnits="userSpaceOnUse" x1="367.674438" x2="367.674438" xlink:href="#a" y1="25.279" y2="454.699"/><linearGradient id="c" gradientUnits="userSpaceOnUse" x1="108.792438" x2="108.792438" xlink:href="#a" y1="25.279" y2="454.699"/><linearGradient id="d" gradientUnits="userSpaceOnUse" x1="238.230438" x2="238.230438" xlink:href="#a" y1="25.279" y2="454.699"/><linearGradient id="e" gradientUnits="userSpaceOnUse" x1="331.091438" x2="331.091438" xlink:href="#a" y1="25.279" y2="454.699"/><linearGradient id="f" gradientUnits="userSpaceOnUse" x1="145.387438" x2="145.387438" xlink:href="#a" y1="25.279" y2="454.699"/><linearGradient id="g" gradientUnits="userSpaceOnUse" x1="238.231438" x2="238.231438" xlink:href="#a" y1="25.279" y2="454.699"/><path d="m453.324219 121.0625c-.664063-4.179688-4.46875-7.121094-8.683594-6.707031-19.152344 1.847656-33.476563 18.414062-32.542969 37.632812l1.441406 58.9375c-15.757812 1.570313-29.550781 11.261719-36.367187 25.554688l-21.539063 45.21875c-3.351562 7.011719-8.234374 13.183593-14.292968 18.050781l-4.472656 3.589844c-22.769532 18.167968-35.453126 46.140625-34.121094 75.234375l-8.796875-4.191407c-3.992188-1.898437-8.765625-.207031-10.664063 3.785157l-23.617187 49.585937c-1.898438 3.988282-.207031 8.761719 3.78125 10.664063l108.816406 51.824219c3.992187 1.902343 8.769531.207031 10.667969-3.78125l23.617187-49.589844c1.898438-3.988282.207031-8.761719-3.785156-10.660156l-2.898437-1.382813-2.933594-16.710937c-.359375-5.9375 1.550781-11.792969 5.351562-16.371094l56.351563-68.191406c.113281-.136719.222656-.277344.324219-.421876 11.617187-16.21875 17.742187-35.726562 17.480468-55.675781-.003906-.378906-.039062-.753906-.097656-1.128906zm-81.398438 351.292969-94.371093-44.945313 16.738281-35.144531 94.371093 44.949219zm74.203125-158.78125-56.179687 67.980469c-6.515625 7.859374-9.726563 17.945312-8.945313 28.125.019532.261718.054688.527343.101563.785156l1.039062 5.921875-62.511719-29.773438c-4.394531-26.785156 6.023438-53.859375 27.242188-70.792969l4.476562-3.585937c7.9375-6.382813 14.335938-14.464844 18.726563-23.652344l21.539063-45.222656c5.625-11.792969 18.386718-18.433594 31.273437-16.269531l-31.488281 66.121094c-1.246094 2.582031-1.015625 5.636718.605468 8 1.621094 2.367187 4.386719 3.683593 7.246094 3.453124 2.859375-.234374 5.375-1.976562 6.59375-4.574218l35.398438-74.332032c1.902344-3.988281.207031-8.761718-3.78125-10.664062-2.535156-1.203125-5.175782-2.167969-7.890625-2.882812l-1.484375-60.703126c0-.066406 0-.136718-.007813-.207031-.40625-7.875 3.832031-15.257812 10.839844-18.875l21.53125 135.839844c.09375 16.230469-4.914063 32.078125-14.320313 45.308594zm0 0" fill="url(#b)"/><path d="m193.179688 378.167969c-1.898438-3.992188-6.675782-5.683594-10.664063-3.785157l-8.800781 4.191407c1.335937-29.09375-11.351563-57.070313-34.117188-75.234375l-4.476562-3.589844c-6.054688-4.871094-10.9375-11.039062-14.289063-18.050781l-21.535156-45.21875c-6.816406-14.292969-20.609375-23.984375-36.371094-25.554688l1.441407-58.9375c.9375-19.21875-13.386719-35.785156-32.542969-37.632812-4.210938-.414063-8.015625 2.527343-8.679688 6.707031l-23.027343 145.265625c-.0585942.375-.0937505.75-.0976568 1.128906-.2617192 19.949219 5.8632808 39.457031 17.4804688 55.675781.101562.144532.210938.285157.324219.421876l56.351562 68.191406c3.800781 4.578125 5.710938 10.433594 5.351563 16.371094l-2.933594 16.710937-2.898438 1.382813c-3.988281 1.898437-5.683593 6.671874-3.78125 10.660156l23.621094 49.589844c1.898438 3.988281 6.671875 5.679687 10.660156 3.78125l108.816407-51.824219c3.988281-1.902344 5.683593-6.675781 3.785156-10.664063zm-106.667969 3.386719-56.179688-67.980469c-9.40625-13.230469-14.417969-29.082031-14.320312-45.316407l21.53125-135.839843c7.007812 3.617187 11.246093 11 10.839843 18.875 0 .070312-.007812.140625-.007812.210937l-1.484375 60.699219c-2.714844.714844-5.355469 1.679687-7.890625 2.886719-3.988281 1.898437-5.683594 6.671875-3.78125 10.660156l35.398438 74.332031c1.21875 2.597657 3.734374 4.34375 6.59375 4.574219 2.859374.230469 5.625-1.085938 7.246093-3.449219 1.621094-2.367187 1.851563-5.421875.605469-8.003906l-31.484375-66.113281c12.886719-2.164063 25.648437 4.476562 31.273437 16.269531l21.535157 45.222656c4.390625 9.1875 10.792969 17.269531 18.730469 23.652344l4.476562 3.585937c21.21875 16.933594 31.636719 44.007813 27.238281 70.792969l-62.511719 29.773438 1.039063-5.921875c.046875-.257813.082031-.523438.101563-.785156.777343-10.179688-2.429688-20.265626-8.949219-28.125zm18.027343 90.800781-16.738281-35.144531 94.371094-44.945313 16.738281 35.144531zm0 0" fill="url(#c)"/><path d="m233.363281 152.167969c.136719.054687.277344.105469.417969.152343 2.871094 1.058594 6.027344 1.058594 8.898438 0 .160156-.054687.316406-.109374.472656-.175781 63.722656-25.816406 85.238281-73.464843 78.300781-109.234375l-.011719-.054687c-5.199218-25.800781-24.015625-42.472657-47.921875-42.472657-11.324219 0-23.40625 3.960938-35.214843 11.507813-11.957032-7.894531-23.890626-11.890625-35.550782-11.890625-24.058594 0-42.800781 16.855469-47.746094 42.929688-6.933593 36.148437 14.605469 83.941406 78.355469 109.238281zm-62.640625-106.242188c3.5-18.457031 15.777344-29.925781 32.03125-29.925781 9.53125 0 20.144532 4.160156 30.691406 12.027344 2.808594 2.09375 6.648438 2.121094 9.484376.0625 10.550781-7.65625 21.128906-11.707032 30.585937-11.707032 16.1875 0 28.539063 11.34375 32.230469 29.609376 7.808594 40.328124-28.117188 74.566406-67.527344 90.886718-54.441406-22.007812-73.15625-61.449218-67.496094-90.953125zm0 0" fill="url(#d)"/><path d="m274.832031 170.488281c-4.671875 24.371094 9.613281 56.5 52.074219 73.351563.136719.054687.277344.105468.421875.152344 2.429687.875 5.089844.875 7.519531 0 .160156-.054688.316406-.109376.472656-.175782 19.148438-7.757812 34.078126-19.246094 43.171876-33.222656 8.261718-12.699219 11.398437-26.945312 8.84375-40.121094l-.011719-.058594c-3.625-17.960937-16.800781-29.566406-33.578125-29.566406-7.316406 0-15.035156 2.359375-22.585938 6.867188-7.640625-4.726563-15.308594-7.113282-22.855468-7.113282-16.890626-.003906-30.03125 11.738282-33.472657 29.886719zm60.953125-6.671875c6.199219-4.496094 12.574219-6.972656 17.960938-6.972656 8.949218 0 15.800781 6.402344 17.886718 16.703125 3.355469 17.371094-7.9375 40.835937-40.5625 54.707031-32.621093-13.601562-43.898437-37.164062-40.519531-54.769531 2.003907-10.578125 8.644531-16.890625 17.753907-16.890625 5.5 0 11.722656 2.472656 18 7.15625 2.804687 2.09375 6.644531 2.121094 9.476562.066406zm0 0" fill="url(#e)"/><path d="m141.199219 243.839844c.136719.054687.277343.105468.417969.152344 2.429687.875 5.089843.875 7.519531 0 .160156-.054688.320312-.113282.476562-.175782 19.148438-7.757812 34.074219-19.246094 43.171875-33.222656 8.261719-12.699219 11.398438-26.945312 8.84375-40.121094l-.011718-.058594c-3.625-17.964843-16.800782-29.570312-33.578126-29.570312-7.316406 0-15.035156 2.359375-22.589843 6.871094-7.636719-4.726563-15.304688-7.117188-22.851563-7.117188-16.890625 0-30.027344 11.738282-33.472656 29.890625-4.675781 24.371094 9.609375 56.503907 52.074219 73.351563zm-36.355469-70.351563c2.003906-10.578125 8.640625-16.890625 17.753906-16.890625 5.5 0 11.722656 2.476563 18 7.15625 2.804688 2.09375 6.648438 2.121094 9.480469.0625 6.195313-4.496094 12.574219-6.972656 17.960937-6.972656 8.945313 0 15.800782 6.402344 17.886719 16.703125 3.355469 17.371094-7.9375 40.835937-40.5625 54.707031-32.621093-13.589844-43.898437-37.160156-40.519531-54.765625zm0 0" fill="url(#f)"/><path d="m280.441406 241.9375-.011718-.058594c-2.757813-13.667968-13.25-22.851562-26.113282-22.851562-5.632812.117187-11.144531 1.671875-16.011718 4.507812-4.90625-2.972656-10.511719-4.585937-16.246094-4.683594-12.953125 0-23.421875 9.292969-26.039063 23.101563-3.5 18.238281 7.011719 42.214844 38.386719 54.664063.140625.054687.28125.105468.425781.152343 2.199219.78125 4.601563.78125 6.800781 0 .160157-.050781.316407-.109375.472657-.171875 31.347656-12.699218 41.839843-36.601562 38.335937-54.660156zm-42.230468 38.941406c-21.261719-9.199218-28.664063-24.511718-26.476563-35.925781 1.199219-6.324219 5.058594-10.101563 10.324219-10.101563 3.402344 0 7.339844 1.601563 11.390625 4.621094 2.804687 2.09375 6.648437 2.117188 9.480469.0625 4-2.90625 8.046874-4.507812 11.386718-4.507812 5.257813 0 9.152344 3.734375 10.425782 9.988281 2.164062 11.253906-5.257813 26.496094-26.53125 35.863281zm0 0" fill="url(#g)"/></svg>